<svg xmlns="http://www.w3.org/2000/svg" viewBox="0 0 512 512">
  <defs>
    <linearGradient id="bg" x1="0%" y1="0%" x2="100%" y2="100%">
      <stop offset="0%" stop-color="#4285F4" />
      <stop offset="100%" stop-color="#34A853" />
    </linearGradient>
    <filter id="shadow" x="-20%" y="-20%" width="140%" height="140%">
      <feDropShadow dx="0" dy="8" stdDeviation="12" flood-opacity="0.3"/>
    </filter>
  </defs>
  
  <rect width="512" height="512" rx="116" fill="url(#bg)" />
  
  <g filter="url(#shadow)">
    <path d="M256 96C185.3 96 128 153.3 128 224c0 98.7 128 224 128 224s128-125.3 128-224c0-70.7-57.3-128-128-128zm0 176c-26.5 0-48-21.5-48-48s21.5-48 48-48 48 21.5 48 48-21.5 48-48 48z" fill="#FFFFFF"/>
    <circle cx="256" cy="224" r="48" fill="#EA4335" />
    <circle cx="256" cy="224" r="16" fill="#FFFFFF" />
  </g>
</svg>
